<?xml version="1.0" encoding="iso-8859-1"?>
<!-- Uploaded to: SVG Repo, www.svgrepo.com, Generator: SVG Repo Mixer Tools -->
<svg height="800px" width="800px" version="1.1" id="Layer_1" xmlns="http://www.w3.org/2000/svg" xmlns:xlink="http://www.w3.org/1999/xlink" 
	 viewBox="0 0 511.988 511.988" xml:space="preserve">
<path style="fill:#434A54;" d="M223.994,26.672H95.997c-17.656,0-31.999,14.359-31.999,31.999v95.998
	c0,17.656,11.953,31.999,26.655,31.999c14.703,0,26.671-14.343,26.671-31.999V90.671c0-5.875,4.781-10.656,10.672-10.656h63.999
	c5.875,0,10.656,4.781,10.656,10.656v63.999c0,17.656,11.968,31.999,26.671,31.999s26.671-14.343,26.671-31.999V58.671
	C255.994,41.032,241.635,26.672,223.994,26.672z"/>
<path style="fill:#656D78;" d="M273.118,158.872c-30.218-30.218-70.389-46.858-113.122-46.858
	c-42.749,0-82.92,16.641-113.138,46.858C16.64,189.09,0,229.261,0,272.01c0,28.078,7.375,55.717,21.343,79.904
	c13.546,23.453,32.983,43.232,56.186,57.217c1.672,1,3.562,1.531,5.516,1.531h153.887c1.953,0,3.844-0.531,5.516-1.531
	c23.202-13.984,42.64-33.764,56.187-57.217c13.969-24.188,21.359-51.826,21.359-79.904
	C319.993,229.261,303.337,189.09,273.118,158.872z"/>
<path style="fill:#CCD1D9;" d="M501.316,346.665H117.325c-5.891,0-10.671,4.766-10.671,10.656v42.67
	c0,5.891,4.781,10.672,10.671,10.672h383.991c5.891,0,10.672-4.781,10.672-10.672v-42.67
	C511.988,351.431,507.207,346.665,501.316,346.665z"/>
<path style="fill:#DA4453;" d="M181.324,303.992c-17.64,0-31.999,14.359-31.999,32v85.326c0,17.656,14.359,32,31.999,32
	s32-14.344,32-32v-85.326C213.323,318.352,198.964,303.992,181.324,303.992z"/>
<path style="fill:#ED5564;" d="M234.651,271.995c-17.641,0-32,14.359-32,31.998v149.326c0,17.654,14.359,31.998,32,31.998
	c17.64,0,31.999-14.344,31.999-31.998V303.992C266.649,286.354,252.291,271.995,234.651,271.995z"/>
<path style="fill:#DA4453;" d="M437.317,303.992c-17.64,0-31.998,14.359-31.998,32v85.326c0,17.656,14.358,32,31.998,32
	c17.641,0,32-14.344,32-32v-85.326C469.317,318.352,454.958,303.992,437.317,303.992z"/>
<path style="fill:#ED5564;" d="M383.975,271.995c-17.641,0-32,14.359-32,31.998v149.326c0,17.654,14.359,31.998,32,31.998
	c17.656,0,31.999-14.344,31.999-31.998V303.992C415.974,286.354,401.632,271.995,383.975,271.995z"/>
<g>
	<path style="fill:#AAB2BC;" d="M511.988,367.992c-2.734,0-5.469,1.047-7.547,3.125c-4.172,4.172-4.172,10.922,0,15.076
		c2.078,2.094,4.812,3.125,7.547,3.125V367.992z"/>
	<path style="fill:#AAB2BC;" d="M106.654,367.992v21.326c2.734,0,5.468-1.031,7.546-3.125c4.156-4.154,4.156-10.904,0-15.076
		C112.122,369.04,109.388,367.992,106.654,367.992z"/>
</g>
</svg>