<?xml version="1.0" encoding="iso-8859-1"?>
<!-- Uploaded to: SVG Repo, www.svgrepo.com, Generator: SVG Repo Mixer Tools -->
<svg height="800px" width="800px" version="1.1" id="Layer_1" xmlns="http://www.w3.org/2000/svg" xmlns:xlink="http://www.w3.org/1999/xlink" 
	 viewBox="0 0 511.984 511.984" xml:space="preserve">
<path style="fill:#434A54;" d="M202.651,218.652c-4.109,0-7.688,3.5-9.453,8.625c-2.937-5.125-8.828-8.625-15.609-8.625
	c-9.718,0-17.593,7.172-17.593,16v49.437c0,8.828,7.875,15.984,17.593,15.984c7.75,0,14.328-4.562,16.671-10.906
	c1.953,3.734,4.984,6.141,8.391,6.141c5.891,0,10.672-7.156,10.672-16v-44.655C213.323,225.824,208.542,218.652,202.651,218.652z"/>
<path style="fill:#E6E9ED;" d="M245.322,261.323c-89.92-11.281-205.87,39.577-176.246,162.512l58.921,28.546l260.354-93.153
	l3.781-33.906C392.132,325.321,356.257,275.244,245.322,261.323z"/>
<path style="fill:#434A54;" d="M462.348,89.061c-4-1.938-8.797-1.188-12.016,1.89c-12.344,11.781-26.437,22.343-41.921,31.39
	c-2.905,1.703-4.843,4.672-5.218,8.016l-27.625,247.119c-0.297,2.719,0.453,5.453,2.109,7.624l40.483,53.344
	c2.047,2.688,5.219,4.219,8.484,4.219c0.984,0,1.969-0.141,2.937-0.422c4.234-1.203,7.281-4.891,7.688-9.266l31.047-333.321
	C468.739,95.233,466.348,90.998,462.348,89.061z"/>
<path style="fill:#AC92EB;" d="M436.708,428.429c-0.344-0.953-8.593-23.844-31.123-46.608
	c-20.672-20.905-57.875-45.827-117.592-45.827c-41.296,0-80.295,5.781-115.919,17.172c-28.624,9.156-55.139,21.937-78.811,37.998
	c-40.624,27.562-58.795,55.188-59.545,56.359c-3.125,4.796-1.891,11.202,2.781,14.515l30.171,21.327
	c1.812,1.266,3.953,1.953,6.156,1.953h323.649c2.219,0,4.359-0.688,6.172-1.953l30.17-21.327c2.828-2,4.5-5.25,4.5-8.719v-21.327
	C437.317,430.772,437.114,429.569,436.708,428.429z"/>
<path style="fill:#656D78;" d="M287.993,293.322c-29.406,0-53.342,23.921-53.342,53.327c0,29.421,23.936,53.342,53.342,53.342
	s53.327-23.921,53.327-53.342C341.32,317.243,317.399,293.322,287.993,293.322z"/>
<path style="fill:#AAB2BC;" d="M287.993,421.319c-5.891,0-10.672-4.766-10.672-10.672v-63.998c0-5.891,4.781-10.656,10.672-10.656
	s10.656,4.766,10.656,10.656v63.998C298.649,416.554,293.884,421.319,287.993,421.319z"/>
<path style="fill:#CCD1D9;" d="M309.321,421.319h-42.672c-5.891,0-10.655-4.766-10.655-10.672c0-5.891,4.765-10.656,10.655-10.656
	h42.672c5.891,0,10.672,4.766,10.672,10.656C319.993,416.554,315.212,421.319,309.321,421.319z"/>
<path style="fill:#656D78;" d="M286.868,181.887c-1.812-3.609-5.5-5.891-9.547-5.891H127.997c-5.891,0-10.672,4.766-10.672,10.656
	v42.671c0,5.891,4.781,10.672,10.672,10.672h117.325c3.359,0,6.516-1.578,8.531-4.266l31.999-42.671
	C288.274,189.824,288.665,185.496,286.868,181.887z"/>
<g>
	<path style="fill:#434A54;" d="M426.646,442.647c-23.515,0-42.655,19.14-42.655,42.67c0,4.859,0.828,9.656,2.453,14.234
		c1.5,4.25,5.531,7.094,10.047,7.094h60.326c4.516,0,8.547-2.844,10.047-7.094c1.625-4.578,2.453-9.375,2.453-14.234
		C469.317,461.787,450.177,442.647,426.646,442.647z"/>
	<path style="fill:#434A54;" d="M42.655,442.647C19.14,442.647,0,461.787,0,485.317c0,4.859,0.828,9.656,2.453,14.234
		c1.5,4.25,5.531,7.094,10.047,7.094h60.327c4.516,0,8.547-2.844,10.047-7.094c1.625-4.578,2.453-9.375,2.453-14.234
		C85.326,461.787,66.185,442.647,42.655,442.647z"/>
</g>
<path style="fill:#AC92EB;" d="M508.863,29.781L487.52,8.453c-2.406-2.406-5.812-3.516-9.172-2.984
	c-3.375,0.516-6.281,2.625-7.844,5.641c-0.188,0.359-18.672,35.827-47.905,60.389c-35.14,29.53-81.67,44.343-82.123,44.483
	c-3.203,1-5.75,3.453-6.875,6.625s-0.688,6.672,1.188,9.469l18.983,28.499c2.031,3.031,5.391,4.75,8.891,4.75
	c1.125,0,2.281-0.172,3.406-0.562c59.39-20.062,95.592-52.343,115.498-75.873c21.858-25.875,29.499-47.124,29.812-48.015
	C512.738,37,511.769,32.687,508.863,29.781z"/>
</svg>