<?xml version="1.0" encoding="iso-8859-1"?>
<!-- Uploaded to: SVG Repo, www.svgrepo.com, Generator: SVG Repo Mixer Tools -->
<svg version="1.1" id="Layer_1" xmlns="http://www.w3.org/2000/svg" xmlns:xlink="http://www.w3.org/1999/xlink" 
	 viewBox="0 0 511.99 511.99" xml:space="preserve">
<path style="fill:#ED5564;" d="M255.994,256.679c-52.765,0-95.537,42.788-95.537,95.537c0,52.779,42.772,95.561,95.537,95.561
	s95.544-42.781,95.544-95.561C351.538,299.467,308.759,256.679,255.994,256.679z M255.994,373.558
	c-11.781,0-21.335-9.562-21.335-21.343c0-11.781,9.554-21.312,21.335-21.312c11.78,0,21.343,9.531,21.343,21.312
	S267.774,373.558,255.994,373.558z"/>
<rect y="128.225" style="fill:#434A54;" width="511.99" height="42.671"/>
<g>
	<path style="fill:#656D78;" d="M330.648,128.228L330.648,128.228c0,5.891,4.781,10.672,10.688,10.672
		c5.874,0,10.655-4.781,10.655-10.672l0,0H330.648z"/>
	<path style="fill:#656D78;" d="M287.993,128.228L287.993,128.228c0,5.891,4.781,10.672,10.656,10.672
		c5.906,0,10.688-4.781,10.688-10.672l0,0H287.993z"/>
	<path style="fill:#656D78;" d="M245.33,128.228L245.33,128.228c0,5.891,4.773,10.672,10.664,10.672
		c5.89,0,10.663-4.781,10.663-10.672l0,0H245.33z"/>
	<path style="fill:#656D78;" d="M202.659,128.228L202.659,128.228c0,5.891,4.781,10.672,10.672,10.672
		c5.89,0,10.664-4.781,10.664-10.672l0,0H202.659z"/>
	<path style="fill:#656D78;" d="M159.996,128.228L159.996,128.228c0,5.891,4.773,10.672,10.664,10.672
		c5.89,0,10.671-4.781,10.671-10.672l0,0H159.996z"/>
</g>
<path style="fill:#DA4453;" d="M37.335,96.229c-8.836,0-16,7.171-16,15.999v74.67c0,8.828,7.164,16,16,16c8.835,0,16-7.172,16-16
	v-74.67C53.334,103.4,46.17,96.229,37.335,96.229z"/>
<path style="fill:#ED5564;" d="M69.334,53.558c-8.835,0-16,7.171-16,15.999v160.012c0,8.828,7.164,16,16,16s16-7.172,16-16V69.557
	C85.334,60.729,78.17,53.558,69.334,53.558z"/>
<g>
	<path style="fill:#DA4453;" d="M101.333,53.558c-8.836,0-16,7.171-16,15.999v160.012c0,8.828,7.164,16,16,16
		c8.835,0,16-7.172,16-16V69.557C117.333,60.729,110.169,53.558,101.333,53.558z"/>
	<path style="fill:#DA4453;" d="M474.645,96.229c8.844,0,16,7.171,16,15.999v74.67c0,8.828-7.156,16-16,16c-8.828,0-16-7.172-16-16
		v-74.67C458.645,103.4,465.817,96.229,474.645,96.229z"/>
</g>
<path style="fill:#ED5564;" d="M442.645,53.558c8.844,0,16,7.171,16,15.999v160.012c0,8.828-7.156,16-16,16
	c-8.828,0-15.999-7.172-15.999-16V69.557C426.646,60.729,433.817,53.558,442.645,53.558z"/>
<g>
	<path style="fill:#DA4453;" d="M410.646,53.558c8.844,0,16,7.171,16,15.999v160.012c0,8.828-7.156,16-16,16
		c-8.827,0-15.999-7.172-15.999-16V69.557C394.647,60.729,401.819,53.558,410.646,53.558z"/>
	<path style="fill:#DA4453;" d="M255.994,458.432c-58.562,0-106.208-47.655-106.208-106.216
		c0-58.562,47.647-106.193,106.208-106.193S362.21,293.655,362.21,352.216C362.21,410.776,314.556,458.432,255.994,458.432z
		 M255.994,267.35c-46.796,0-84.873,38.084-84.873,84.865c0,46.811,38.077,84.873,84.873,84.873
		c46.812,0,84.873-38.062,84.873-84.873C340.867,305.434,302.806,267.35,255.994,267.35z"/>
	<path style="fill:#DA4453;" d="M255.994,384.214c-17.648,0-32-14.343-32-31.998c0-17.625,14.351-32,32-32
		c17.655,0,31.999,14.375,31.999,32C287.993,369.871,273.649,384.214,255.994,384.214z M255.994,341.559
		c-5.883,0-10.664,4.781-10.664,10.656c0,5.906,4.781,10.687,10.664,10.687c5.882,0,10.663-4.78,10.663-10.687
		C266.657,346.341,261.876,341.559,255.994,341.559z"/>
</g>
</svg>